<?xml version="1.0" encoding="UTF-8" standalone="no"?>
<svg width="128px" height="128px" viewBox="0 0 128 128" version="1.1" xmlns="http://www.w3.org/2000/svg" xmlns:xlink="http://www.w3.org/1999/xlink" xmlns:sketch="http://www.bohemiancoding.com/sketch/ns">
    <!-- Generator: Sketch 3.3.2 (12043) - http://www.bohemiancoding.com/sketch -->
    <title>Job Icon</title>
    <desc>Created with Sketch.</desc>
    <defs></defs>
    <g id="Page-1" stroke="none" stroke-width="1" fill="none" fill-rule="evenodd" sketch:type="MSPage">
        <g id="Desktop-Landscape" sketch:type="MSArtboardGroup" transform="translate(-26.000000, -35.000000)">
            <g id="JobsBoard" sketch:type="MSLayerGroup">
                <g id="Job-Icon" transform="translate(26.000000, 35.000000)" sketch:type="MSShapeGroup">
                    <circle id="Oval-1" fill="#EF4836" cx="64" cy="64" r="64"></circle>
                    <path d="M127.995681,64.7512687 L96.8,32.8 C96.8,32.8 56.1758791,77.5086461 36.2638186,99.4629692 C35.3758791,100.441979 32.8,103.2 32.8,103.2 L57.5976606,127.683766 C59.7034181,127.892916 61.8392037,128 64,128 C99.0954616,128 127.593097,99.7513479 127.995681,64.7512687 Z" id="Path-3" fill-opacity="0.3" fill="#000000"></path>
                    <path d="M32.8,23.2 C32.8,23.2 86.4,23.2 86.4,23.2 C86.4,23.2 96.8,32.8 96.8,32.8 L96.8,103.2 L32.8,103.2 L32.8,23.2 Z" id="Rectangle-1" fill="#BEBABA"></path>
                    <g id="Group" transform="translate(39.200000, 44.000000)" fill="#434040">
                        <rect id="Rectangle-2" x="0" y="0" width="22.4" height="4.8"></rect>
                        <rect id="Rectangle-2-Copy" x="0" y="6.4" width="22.4" height="2.4"></rect>
                        <rect id="Rectangle-2-Copy-2" x="0" y="10.4" width="13.6" height="2.4"></rect>
                        <rect id="Rectangle-2-Copy-5" x="16" y="10.4" width="6.4" height="2.4"></rect>
                        <rect id="Rectangle-2-Copy-3" x="0" y="14.4" width="22.4" height="2.4"></rect>
                        <rect id="Rectangle-2-Copy-4" x="0" y="18.4" width="13.6" height="2.4"></rect>
                    </g>
                    <g id="Group" transform="translate(68.000000, 44.000000)" fill="#434040">
                        <rect id="Rectangle-2" x="0" y="0" width="22.4" height="4.8"></rect>
                        <rect id="Rectangle-2-Copy" x="0" y="6.4" width="22.4" height="2.4"></rect>
                        <rect id="Rectangle-2-Copy-2" x="0" y="10.4" width="6.4" height="2.4"></rect>
                        <rect id="Rectangle-2-Copy-5" x="8.8" y="10.4" width="13.6" height="2.4"></rect>
                        <rect id="Rectangle-2-Copy-3" x="0" y="14.4" width="19.2" height="2.4"></rect>
                        <rect id="Rectangle-2-Copy-4" x="0" y="18.4" width="22.4" height="2.4"></rect>
                    </g>
                    <g id="Group-Copy-2" transform="translate(39.200000, 71.200000)" fill="#434040">
                        <rect id="Rectangle-2" x="0" y="0" width="22.4" height="4.8"></rect>
                        <rect id="Rectangle-2-Copy" x="0" y="6.4" width="22.4" height="2.4"></rect>
                        <rect id="Rectangle-2-Copy-2" x="0" y="10.4" width="6.4" height="2.4"></rect>
                        <rect id="Rectangle-2-Copy-5" x="8.8" y="10.4" width="13.6" height="2.4"></rect>
                        <rect id="Rectangle-2-Copy-3" x="0" y="14.4" width="19.2" height="2.4"></rect>
                        <rect id="Rectangle-2-Copy-4" x="0" y="18.4" width="22.4" height="2.4"></rect>
                    </g>
                    <rect id="Rectangle-26" fill="#434040" x="39.2" y="31.2" width="51.2" height="8"></rect>
                    <path d="M96.8,32.8 L86.4,32.8 L86.4,23.2 L96.8,32.8 Z" id="Path-1" fill="#6E6666"></path>
                    <path d="M96.9085938,42.3070313 L86.5085938,42.3070313 L86.5085938,32.7070312 L96.9085938,42.3070313 Z" id="Path-1-Copy" fill-opacity="0.301743659" fill="#000000" transform="translate(91.708594, 37.507031) rotate(-180.000000) translate(-91.708594, -37.507031) "></path>
                    <g id="Group-Copy" transform="translate(68.000000, 71.200000)" fill="#434040">
                        <rect id="Rectangle-2" x="0" y="0" width="22.4" height="4.8"></rect>
                        <rect id="Rectangle-2-Copy" x="0" y="6.4" width="22.4" height="2.4"></rect>
                        <rect id="Rectangle-2-Copy-2" x="0" y="10.4" width="13.6" height="2.4"></rect>
                        <rect id="Rectangle-2-Copy-5" x="16" y="10.4" width="6.4" height="2.4"></rect>
                        <rect id="Rectangle-2-Copy-3" x="0" y="14.4" width="22.4" height="2.4"></rect>
                        <rect id="Rectangle-2-Copy-4" x="0" y="18.4" width="13.6" height="2.4"></rect>
                    </g>
                </g>
            </g>
        </g>
    </g>
</svg>